# xmcd
# 
# Track frame offsets:
#     150
#     16475
#     39342
#     55996
#     73535
#     90724
#     113409
#     139385
#     167673
#     194127
#     210209
#     231586
# 
# Disc length: 3368
# 
# Revision: 0
# Processed by: cddbd v1.5.2PL0 Copyright (c) Steve Scherf et al.
# Submitted via: fre:ac v1.0.17
# 
DISCID=a70d260c
DTITLE=Guitar Ray and The Gamblers - Poorman Blues
DYEAR=2007
DGENRE=Blues
TTITLE0=Tech Me How To Love You
TTITLE1=That Lonesome Road
TTITLE2=Darling Wait For Me
TTITLE3=Everything Is Gonna Be Alright
TTITLE4=The Conspirancy Boogie
TTITLE5=A Poorman (Like Me)
TTITLE6=You Are Still The One
TTITLE7=The Hoist
TTITLE8=One Track Lover
TTITLE9=Shoulda Had Some More
TTITLE10=Somebody Have Mercy
TTITLE11=The A.K. Stomp
EXTD=
EXTT0=
EXTT1=
EXTT2=
EXTT3=
EXTT4=
EXTT5=
EXTT6=
EXTT7=
EXTT8=
EXTT9=
EXTT10=
EXTT11=
PLAYORDER=
